<?xml version="1.0" standalone="no"?>
<!DOCTYPE svg PUBLIC "-//W3C//DTD SVG 20010904//EN"
 "http://www.w3.org/TR/2001/REC-SVG-20010904/DTD/svg10.dtd">
<svg version="1.0" xmlns="http://www.w3.org/2000/svg"
 width="728.000000pt" height="982.000000pt" viewBox="0 0 728.000000 982.000000"
 preserveAspectRatio="xMidYMid meet">
<metadata>
Created by potrace 1.15, written by Peter Selinger 2001-2017
</metadata>
<g transform="translate(0.000000,982.000000) scale(0.100000,-0.100000)"
fill="#000000" stroke="none">
<path d="M0 6732 l0 -3087 35 -52 c19 -29 35 -55 35 -59 0 -3 9 -19 21 -35 11
-16 18 -33 15 -38 -4 -5 0 -15 7 -23 11 -11 37 -89 43 -133 1 -5 3 -12 4 -15
1 -3 4 -14 5 -25 3 -25 34 -161 45 -197 10 -30 2 -36 -19 -16 -10 11 -11 10
-6 -4 4 -9 13 -19 21 -22 8 -3 14 -15 14 -26 0 -12 5 -30 10 -40 6 -10 13 -42
16 -70 6 -51 5 -51 -18 -39 -22 12 -23 11 -6 -8 22 -24 23 -37 4 -30 -12 5
-13 1 -4 -24 5 -16 14 -26 19 -23 6 3 3 -11 -5 -30 -8 -20 -11 -34 -6 -31 5 3
12 0 16 -6 4 -6 -1 -16 -10 -21 -18 -10 -22 -29 -4 -26 6 2 14 -5 16 -14 2
-13 -1 -16 -12 -12 -9 3 -16 1 -16 -5 0 -6 4 -11 9 -11 5 0 11 -7 14 -14 4
-11 1 -13 -11 -10 -15 5 -15 4 0 -9 20 -16 24 -37 8 -37 -5 0 -10 -5 -10 -11
0 -5 5 -7 11 -3 7 4 9 -2 7 -17 -2 -17 -9 -23 -23 -22 -19 1 -19 1 -2 -11 18
-14 24 -56 6 -56 -5 0 -8 3 -5 8 2 4 -3 16 -11 27 -13 16 -15 17 -10 3 4 -11
1 -18 -6 -18 -8 0 -6 -4 3 -10 13 -9 13 -10 0 -10 -12 -1 -11 -3 3 -11 19 -11
24 -30 6 -27 -6 2 -14 -4 -18 -12 -5 -8 -14 -26 -20 -39 -11 -21 -11 -23 2
-18 9 3 18 1 21 -6 2 -7 3 4 0 23 l-4 35 15 -39 c11 -29 12 -42 4 -47 -7 -4
-8 -9 -1 -13 13 -8 6 -166 -8 -180 -6 -6 -5 -16 1 -29 6 -11 8 -34 4 -56 -9
-40 -11 -65 -20 -166 -4 -38 -8 -90 -11 -115 -2 -25 -4 -52 -4 -60 1 -85 -2
-102 -15 -112 -6 -5 -5 -8 3 -8 9 0 10 -5 4 -17 -11 -20 -24 -122 -23 -169 0
-18 -6 -37 -15 -44 -8 -8 -11 -16 -5 -19 5 -4 2 -21 -9 -43 -12 -26 -14 -38
-6 -42 6 -2 3 -5 -6 -5 -10 -1 -18 6 -18 14 0 9 -6 12 -15 9 -17 -7 -21 -34
-5 -34 6 0 10 -9 10 -20 0 -13 5 -18 15 -14 10 4 15 -1 16 -15 1 -12 2 -27 3
-33 1 -7 -1 -25 -5 -39 -4 -15 -10 -62 -14 -105 -3 -43 -8 -81 -10 -84 -2 -3
-6 -21 -9 -40 -3 -19 -15 -75 -26 -125 -11 -49 -23 -103 -26 -120 -4 -16 -8
-157 -11 -312 l-4 -283 3641 0 3640 0 0 4679 c0 4124 -2 4680 -15 4685 -8 3
-15 13 -15 23 1 17 2 16 15 -1 14 -18 15 -17 13 22 -1 31 -6 42 -17 43 -12 0
-11 3 4 9 16 7 14 9 -14 9 l-34 1 23 -25 c13 -14 20 -28 16 -32 -4 -4 -11 -1
-16 7 -7 10 -10 11 -10 3 0 -7 -5 -13 -11 -13 -6 0 -9 8 -6 19 2 10 1 25 -4
33 -6 11 -1 18 16 26 15 7 25 8 25 2 0 -16 17 -11 24 6 5 13 1 15 -19 12 -14
-3 -25 -1 -25 3 0 24 -31 -9 -46 -48 -19 -49 -33 -43 -16 6 7 20 7 32 -1 40
-11 11 -8 13 38 15 13 1 19 7 19 19 -1 9 2 17 7 17 5 0 9 -6 9 -14 0 -31 15
-22 16 9 l0 33 -44 -25 c-24 -13 -50 -22 -58 -19 -8 3 -14 0 -14 -6 0 -15 -13
-1 -16 17 -1 8 2 15 7 15 5 0 9 8 9 18 0 14 -4 12 -20 -8 -23 -31 -39 -19 -17
13 13 20 13 24 1 24 -8 0 -14 -3 -15 -6 0 -3 -2 -16 -5 -28 -2 -12 2 -28 9
-35 16 -16 3 -83 -14 -72 -7 4 -7 10 -1 16 18 18 -14 67 -43 68 -5 0 -3 -5 5
-10 8 -5 13 -10 10 -11 -21 -4 -50 -5 -50 -2 0 16 24 43 38 44 14 0 14 2 -3 9
-30 13 -48 12 -42 -2 3 -9 -8 -14 -32 -15 l-36 -2 28 12 c28 12 28 12 6 25
-11 8 -18 9 -15 3 4 -5 2 -12 -4 -16 -5 -3 -10 -1 -10 6 0 6 -8 9 -20 6 -10
-3 -21 0 -24 7 -2 6 -5 5 -5 -4 -1 -8 15 -26 34 -39 38 -25 40 -37 6 -26 -12
3 -21 13 -21 21 0 9 -5 12 -11 8 -6 -3 -15 0 -20 7 -6 9 -12 10 -16 4 -15 -20
-98 -69 -115 -68 -10 1 -18 -3 -18 -8 0 -6 -4 -7 -10 -4 -19 12 -10 25 19 25
24 0 28 3 24 20 -4 13 0 20 9 20 17 0 62 40 54 47 -3 3 -12 0 -21 -7 -26 -21
-16 5 10 28 32 28 38 28 30 0 -6 -23 -6 -23 11 -3 16 20 16 20 9 -2 -4 -14 -2
-23 4 -23 6 0 11 7 11 17 0 9 3 13 7 10 10 -11 32 13 26 29 -4 12 -8 12 -20
-3 -13 -17 -13 -16 -7 7 6 22 5 23 -10 11 -9 -7 -16 -9 -16 -3 0 5 6 15 14 22
8 6 13 17 10 23 -2 7 6 17 18 22 28 12 39 72 14 72 -18 0 -22 -13 -5 -19 20
-7 -3 -37 -37 -48 -19 -6 -34 -16 -34 -21 0 -6 5 -7 12 -3 8 5 9 0 5 -17 -4
-13 -7 -27 -7 -31 0 -8 -40 2 -40 11 0 4 6 13 13 20 10 10 6 11 -18 6 -16 -4
-36 -16 -44 -26 -12 -17 -15 -17 -42 -3 -16 8 -29 10 -29 5 0 -19 12 -41 20
-36 4 3 10 -2 14 -10 3 -8 1 -15 -5 -15 -14 0 -39 -26 -39 -39 0 -6 -5 -11
-11 -11 -6 0 -9 6 -6 14 3 8 -1 17 -9 20 -8 3 -14 -1 -14 -11 0 -13 -2 -13
-16 -2 -14 12 -14 14 3 20 10 4 28 5 41 2 13 -3 22 0 22 7 0 7 -7 10 -15 7 -8
-4 -17 -2 -20 4 -4 5 1 12 10 15 9 4 14 13 11 20 -3 7 -1 16 4 19 6 4 10 13
10 22 0 11 -6 14 -25 9 -17 -4 -25 -2 -25 6 0 9 -3 8 -10 -2 -7 -11 -5 -18 6
-27 12 -9 13 -16 6 -30 -10 -17 -11 -17 -17 0 -4 9 -15 17 -24 17 -14 0 -14
-2 -1 -10 8 -5 11 -10 5 -10 -5 0 -1 -7 9 -15 19 -15 19 -16 -6 -19 -23 -2
-14 -41 12 -52 25 -12 25 -12 -8 -11 -34 0 -50 11 -32 22 6 4 8 10 5 15 -3 5
-1 18 4 28 8 14 5 22 -10 35 -10 9 -19 12 -19 7 0 -6 -4 -10 -10 -10 -5 0 -10
9 -10 20 0 13 -7 20 -20 20 -11 0 -20 7 -20 15 0 8 -4 15 -10 15 -5 0 -7 -6
-4 -14 3 -7 -2 -16 -10 -19 -19 -8 -21 -44 -3 -50 6 -2 -1 -3 -16 -1 -18 2
-26 0 -21 -7 4 -8 0 -8 -12 -2 -22 10 -41 9 -66 -1 -11 -5 -23 -2 -33 8 -15
14 -13 15 14 10 23 -5 31 -3 31 7 0 11 3 11 11 -1 8 -11 12 -12 16 -2 2 6 9
12 14 12 6 0 7 -5 3 -11 -4 -7 -1 -10 7 -7 8 3 15 11 15 19 1 8 3 19 4 24 1 6
3 15 5 20 1 6 3 21 3 34 1 13 5 21 9 18 3 -4 12 -2 19 4 9 8 11 6 7 -9 -3 -11
1 -19 9 -19 8 0 13 12 13 29 0 37 -16 35 -59 -6 -19 -19 -37 -29 -39 -23 -2 6
-6 3 -10 -6 -5 -13 -1 -17 15 -17 18 0 19 -2 7 -16 -12 -15 -15 -14 -34 10
-22 28 -35 33 -35 15 0 -20 -62 -71 -73 -60 -7 7 -5 12 6 17 9 3 17 12 17 20
0 8 9 14 20 14 13 0 18 5 14 15 -4 8 -2 15 4 15 6 0 7 11 3 28 -6 23 -13 27
-43 27 -28 0 -34 -3 -30 -17 2 -10 9 -15 15 -11 6 4 7 1 3 -6 -6 -9 -13 -8
-27 5 -10 9 -19 13 -19 7 0 -5 9 -18 20 -28 20 -18 28 -55 12 -55 -5 0 -13 -8
-18 -18 -8 -16 -11 -16 -34 6 -22 21 -22 24 -5 18 28 -8 50 8 41 30 -6 15 -9
16 -16 4 -13 -21 -60 3 -60 30 0 12 -4 18 -10 15 -6 -3 -7 1 -4 10 5 13 2 14
-20 6 -16 -7 -27 -7 -31 -1 -8 13 -65 13 -65 0 0 -5 -7 -10 -16 -10 -8 0 -12
5 -9 10 3 6 -3 10 -14 10 -12 0 -21 -5 -21 -12 0 -9 -3 -9 -12 0 -18 18 -30
14 -23 -8 5 -17 2 -20 -24 -20 -16 0 -33 5 -37 12 -4 6 -3 8 4 5 14 -9 43 3
36 14 -8 14 -102 11 -107 -3 -4 -10 -8 -10 -14 -1 -10 14 -136 15 -126 0 4 -6
1 -7 -8 -2 -7 5 -28 10 -45 12 -24 3 -34 -1 -37 -14 -4 -16 -5 -16 -6 -1 -1
15 -23 16 -226 16 -224 0 -225 0 -225 -21 0 -17 -2 -19 -9 -7 -6 8 -8 17 -5
21 2 4 -72 8 -165 8 -128 1 -170 -2 -174 -11 -4 -10 -6 -10 -6 -1 -1 10 -493
13 -2386 13 l-2385 0 0 -3088z m2242 517 c2 -6 23 -12 48 -14 32 -2 46 -8 51
-21 4 -11 8 -13 8 -6 1 19 21 14 21 -5 0 -15 2 -15 9 -4 8 12 14 12 33 4 l23
-12 -22 0 c-45 -2 -22 -16 27 -17 50 -1 90 -23 90 -49 0 -8 10 -11 28 -8 25 4
26 3 7 -8 -26 -16 -44 -40 -44 -59 0 -13 1 -13 12 1 15 19 67 34 67 19 0 -6
-10 -14 -22 -19 -21 -8 -21 -8 5 -15 16 -3 25 -11 22 -16 -9 -14 38 -7 54 8 8
7 22 11 32 9 11 -3 22 -1 25 4 3 5 13 9 22 9 15 -1 15 -2 -1 -11 -18 -10 -18
-11 0 -25 13 -10 14 -13 4 -14 -8 0 -11 -3 -8 -6 4 -4 13 -1 21 5 11 9 16 9
22 0 4 -8 2 -15 -5 -17 -8 -3 -4 -9 11 -16 17 -9 22 -19 21 -39 -1 -15 2 -27
7 -27 6 0 9 3 9 8 -3 19 3 28 20 28 11 0 17 -4 15 -8 -3 -4 0 -8 6 -8 6 0 8
-5 4 -11 -4 -8 -9 -7 -15 2 -4 7 -12 10 -16 5 -4 -5 -2 -11 5 -13 6 -3 9 -9 6
-15 -4 -6 2 -5 15 1 14 8 21 8 21 1 0 -14 -37 -50 -52 -50 -16 -1 7 -15 40
-24 16 -6 22 -3 22 8 0 9 -5 15 -11 14 -6 -2 -14 3 -16 10 -5 13 19 17 31 5 8
-8 31 -14 67 -17 14 -2 31 -6 37 -10 7 -4 17 -4 23 0 7 4 10 1 7 -7 -6 -19
-97 -16 -109 2 -7 11 -9 11 -9 -2 0 -9 10 -19 23 -22 12 -3 48 -12 80 -20 31
-8 57 -12 57 -9 0 2 6 0 13 -5 6 -5 28 -11 47 -12 56 -5 64 -7 87 -19 12 -7
27 -12 34 -12 14 0 126 -67 149 -89 9 -9 34 -25 55 -36 78 -40 145 -80 145
-87 0 -6 -47 -25 -120 -47 -33 -10 -32 -10 15 -5 28 3 60 12 72 20 25 16 73
19 73 5 0 -5 22 -8 49 -8 27 1 49 6 48 11 -1 5 11 12 27 17 41 11 97 -10 107
-41 8 -23 8 -23 -5 -7 -13 17 -14 17 -19 -2 -5 -19 10 -30 57 -46 18 -5 18 -7
-6 -19 -15 -8 -37 -14 -50 -14 -13 0 -54 -11 -92 -25 -44 -17 -79 -24 -97 -20
-32 6 -37 24 -14 43 29 24 6 22 -27 -3 -18 -13 -50 -30 -70 -36 -20 -7 -38
-16 -40 -22 -5 -14 -67 -29 -73 -18 -5 8 15 14 37 10 4 0 5 5 2 12 -2 7 6 18
18 24 74 34 91 43 71 39 -32 -6 -37 9 -8 22 14 7 25 16 25 22 0 13 -3 11 -85
-46 -50 -35 -77 -45 -162 -63 -126 -26 -164 -27 -111 -3 31 14 34 19 22 30 -8
7 -18 11 -23 8 -12 -8 -234 -27 -240 -21 -2 3 14 13 37 22 40 15 56 33 30 33
-7 0 -5 7 5 18 18 20 67 28 67 11 0 -7 11 -8 31 -4 40 9 80 30 72 38 -3 4 0 7
8 7 8 1 32 10 54 21 36 18 37 19 10 14 -16 -3 -51 -8 -78 -12 -42 -5 -45 -7
-30 -19 17 -12 16 -13 -7 -13 -14 0 -34 4 -45 9 -19 8 -19 9 3 9 14 1 22 6 19
14 -4 13 -28 12 -62 -2 -44 -18 -93 -31 -117 -31 -15 0 -28 -5 -30 -11 -7 -22
-191 -47 -218 -29 -12 8 -12 10 5 10 17 0 17 2 5 10 -8 5 -24 10 -35 10 -11 0
-31 10 -45 21 -14 11 -19 18 -12 14 7 -4 38 -8 68 -9 41 -2 54 1 54 11 0 10
-7 12 -20 8 -24 -8 -124 12 -162 31 -16 8 -28 21 -28 29 0 8 -7 15 -16 15 -9
0 -27 9 -41 20 -15 12 -20 20 -12 20 8 0 4 9 -11 20 l-25 20 23 0 c19 0 21 2
10 14 -7 8 -16 12 -20 9 -5 -2 -8 0 -8 5 0 5 -6 9 -12 9 -28 0 -87 46 -97 74
-5 16 -15 29 -20 29 -14 0 -14 -17 -1 -25 6 -3 10 -14 10 -23 -1 -16 -1 -16
-11 1 -5 9 -16 17 -22 17 -15 0 -97 74 -97 88 0 5 -11 13 -25 16 -29 7 -33 21
-7 23 46 3 61 8 71 25 9 14 8 18 -3 18 -8 0 -17 -4 -20 -9 -3 -5 -17 -8 -31
-8 -21 0 -23 2 -14 14 9 10 14 11 19 2 10 -15 31 -2 24 15 -3 7 5 18 18 24 15
7 17 11 8 11 -9 1 -22 11 -30 23 -8 11 -23 28 -32 37 -25 22 -22 31 7 29 14
-1 25 -8 25 -15 0 -7 7 -10 16 -6 15 6 15 8 -2 20 -13 10 -33 13 -63 9 -37 -5
-42 -4 -31 8 6 9 19 12 28 8 10 -3 6 5 -11 21 -31 32 -35 49 -9 40 14 -5 15
-4 4 8 -11 12 -16 11 -28 -6 -13 -17 -16 -18 -24 -5 -5 8 -10 18 -10 21 0 3
-9 15 -20 27 l-21 22 27 0 c27 0 94 -35 94 -50 0 -4 11 -11 25 -14 15 -4 25
-13 23 -21 -2 -7 2 -14 7 -15 20 -2 16 28 -4 35 -28 9 -27 25 2 25 l22 1 -23
12 c-12 7 -19 17 -15 21 4 4 1 7 -7 5 -19 -3 -50 10 -50 22 0 5 7 9 16 9 8 0
12 -5 8 -11 -4 -7 2 -9 17 -7 16 2 25 11 27 26 4 23 18 30 24 11z m1814 -880
c3 -6 17 -9 30 -6 36 7 37 -7 2 -33 -26 -19 -29 -24 -14 -32 21 -12 21 -28 -1
-29 -20 -1 -76 -63 -76 -85 0 -8 -4 -14 -9 -14 -13 0 -9 24 7 47 12 16 12 23
3 29 -6 4 -14 2 -16 -5 -2 -7 -13 -20 -23 -30 -10 -9 -21 -33 -23 -52 -6 -47
-6 -47 -16 -22 -6 16 -14 21 -26 16 -15 -6 -15 -7 2 -20 15 -11 16 -16 6 -22
-11 -6 -10 -10 4 -15 16 -6 16 -8 4 -16 -26 -17 7 -11 55 10 25 11 43 15 40
10 -3 -6 -1 -10 4 -10 6 0 11 -4 11 -10 0 -5 -7 -10 -15 -10 -8 0 -15 -4 -15
-10 0 -15 38 -12 64 6 13 8 40 16 60 17 20 2 45 10 56 20 11 9 24 17 29 17 5
0 18 12 28 26 17 23 21 25 35 11 15 -16 45 -7 35 10 -3 5 8 18 26 28 18 10 34
22 37 26 3 4 12 4 19 -1 11 -6 5 -12 -22 -24 -41 -17 -49 -27 -14 -18 22 5 22
5 3 -16 -26 -30 -7 -28 25 2 30 28 82 56 102 56 8 0 17 7 21 15 3 8 12 15 19
15 8 0 21 7 28 16 10 12 23 14 51 10 28 -5 47 -1 75 15 21 12 56 23 79 24 23
2 60 9 83 16 32 9 50 10 80 0 28 -8 52 -9 83 -1 55 12 68 12 46 -1 -10 -5 -18
-17 -18 -24 0 -19 9 -19 30 0 15 14 21 12 55 -15 21 -16 40 -30 43 -30 6 0
-20 33 -38 47 -32 24 -2 21 36 -4 21 -15 65 -40 96 -56 32 -16 58 -33 58 -38
0 -5 5 -9 11 -9 18 0 -19 44 -58 67 l-36 22 26 12 c37 17 133 -5 158 -35 10
-11 18 -16 19 -9 0 6 -4 15 -10 18 -5 3 -10 12 -10 19 0 15 30 17 48 3 6 -5
12 -6 12 -3 0 4 7 0 16 -8 8 -9 12 -20 9 -26 -3 -5 1 -10 10 -10 11 0 15 -6
11 -18 -5 -15 0 -17 27 -16 17 1 41 5 52 9 19 6 19 6 3 -8 -19 -15 -14 -27 11
-27 19 0 45 -54 37 -75 -3 -8 -1 -15 4 -15 11 0 45 -61 42 -73 -1 -4 3 -18 10
-30 17 -31 19 -69 5 -85 -10 -13 -8 -14 11 -8 18 6 22 4 22 -13 0 -12 4 -21
10 -21 5 0 7 -7 4 -15 -4 -8 -10 -12 -15 -9 -5 3 -9 0 -9 -7 0 -6 8 -9 19 -6
17 4 18 2 10 -20 -6 -18 -6 -22 3 -17 7 5 9 0 6 -14 -4 -13 0 -23 9 -26 9 -4
13 -13 9 -21 -3 -9 3 -23 14 -32 11 -10 20 -23 20 -31 0 -7 5 -10 11 -6 7 4
10 1 7 -7 -3 -8 3 -23 12 -34 10 -11 20 -29 22 -39 1 -11 20 -38 40 -60 21
-23 38 -49 38 -58 0 -10 4 -18 8 -18 5 0 15 -12 23 -27 8 -16 23 -36 34 -45
11 -10 16 -17 11 -18 -5 0 -1 -9 9 -20 10 -11 15 -23 12 -26 -3 -4 9 -25 28
-47 19 -22 33 -43 30 -45 -3 -3 2 -16 10 -28 8 -12 18 -41 21 -64 5 -29 13
-44 27 -49 14 -5 17 -10 9 -15 -7 -4 -12 -14 -12 -23 0 -13 2 -14 17 -2 15 12
16 12 10 -3 -3 -10 -2 -18 3 -18 6 0 10 -11 10 -24 0 -14 4 -27 8 -30 5 -3 9
-19 10 -36 0 -16 4 -35 9 -42 4 -7 9 -42 11 -78 8 -188 7 -185 22 -182 8 2 17
8 18 13 2 5 10 9 17 9 12 0 25 21 25 41 0 5 -14 9 -32 9 -40 0 -26 17 20 25
43 7 74 27 67 42 -2 8 4 13 15 13 29 0 22 45 -12 81 -16 16 -28 33 -28 37 0
13 -36 43 -43 36 -3 -3 -3 3 0 15 3 13 1 21 -6 21 -7 0 -9 -5 -5 -12 4 -7 3
-8 -5 -4 -6 4 -9 12 -5 17 3 6 2 18 -2 27 -13 30 -14 51 -3 58 13 8 29 -14 22
-32 -2 -6 0 -15 6 -18 18 -12 32 57 23 120 -10 76 -4 325 10 341 5 7 9 29 7
50 -4 78 25 194 53 207 7 3 3 3 -8 1 -19 -5 -22 -1 -21 30 1 34 2 35 41 35
l39 0 -21 -19 c-29 -24 -28 -33 3 -25 19 5 25 2 25 -11 0 -9 5 -13 10 -10 6 3
10 1 10 -4 0 -6 -4 -11 -10 -11 -5 0 -10 -5 -10 -10 0 -6 6 -10 14 -8 8 2 16
-1 17 -7 1 -5 9 -16 18 -23 12 -10 13 -15 4 -18 -7 -3 -13 -14 -13 -24 0 -10
-5 -22 -11 -25 -6 -4 -8 -13 -5 -21 3 -8 -5 -24 -17 -36 -18 -19 -21 -33 -19
-73 1 -27 6 -59 11 -70 5 -11 21 -56 35 -100 14 -44 33 -102 42 -130 l18 -49
8 29 c5 17 5 48 1 70 -13 77 -9 208 8 257 18 49 17 104 0 136 -6 11 -8 22 -5
25 3 3 1 14 -5 25 -7 13 -7 22 0 29 8 8 3 25 -15 57 -14 26 -26 56 -26 67 0
17 3 18 20 9 24 -13 83 -125 78 -148 -2 -10 3 -25 12 -35 8 -9 13 -32 12 -50
-1 -17 5 -72 14 -122 20 -103 21 -217 5 -360 -6 -55 -21 -183 -33 -285 -11
-102 -24 -255 -27 -340 -8 -178 -17 -206 -98 -284 -62 -61 -121 -83 -177 -69
-22 7 -42 11 -43 10 -1 -1 -4 -155 -6 -342 -3 -188 -10 -365 -16 -395 -6 -30
-13 -68 -16 -85 -4 -28 -10 -54 -33 -162 -5 -24 -13 -48 -19 -55 -5 -7 -17
-38 -27 -68 -10 -30 -42 -104 -71 -165 -29 -60 -55 -117 -58 -125 -4 -8 -11
-22 -16 -30 -4 -8 -23 -44 -40 -80 -62 -124 -163 -315 -172 -325 -5 -5 -9 -17
-9 -27 0 -10 -3 -18 -7 -18 -5 0 -13 -10 -19 -23 -5 -12 -33 -67 -62 -122 -39
-77 -54 -117 -62 -175 -20 -145 -38 -285 -38 -300 0 -17 -11 -236 -17 -327 -2
-34 -11 -75 -19 -92 -20 -38 -21 -51 -1 -25 13 18 14 16 15 -28 0 -53 -8 -80
-21 -72 -14 8 -10 -3 7 -20 14 -15 14 -16 0 -16 -23 0 -20 -27 4 -33 13 -3 20
-13 19 -29 -2 -23 -2 -23 -6 -1 -5 25 -22 30 -41 11 -16 -16 -15 -31 2 -25 23
9 27 -5 8 -22 -22 -20 -34 -49 -23 -56 16 -9 19 -55 5 -55 -8 0 -14 -4 -14
-10 0 -5 4 -10 10 -10 6 0 5 -10 -2 -25 -6 -13 -14 -22 -19 -20 -4 3 -10 -8
-14 -24 -3 -16 -13 -32 -21 -35 -8 -3 -14 -15 -14 -27 0 -14 -5 -19 -15 -16
-8 4 -17 2 -20 -3 -4 -6 0 -10 7 -10 7 0 -3 -14 -22 -30 -19 -17 -34 -36 -32
-43 2 -7 1 -9 -3 -5 -4 4 -14 1 -21 -5 -40 -33 -46 -41 -35 -45 25 -8 9 -21
-19 -16 -19 4 -30 2 -30 -4 0 -15 -47 -61 -54 -54 -3 3 -6 0 -6 -6 0 -7 -7
-12 -16 -12 -8 0 -12 -4 -9 -10 3 -5 0 -7 -9 -4 -10 4 -20 -6 -32 -28 -9 -18
-19 -27 -21 -20 -7 19 -23 14 -23 -8 0 -11 -4 -20 -10 -20 -5 0 -10 6 -10 13
0 8 -3 8 -9 -2 -5 -8 -7 -21 -3 -29 3 -10 1 -13 -6 -8 -7 4 -12 2 -12 -3 0 -6
-3 -10 -7 -10 -23 4 -31 -3 -26 -21 4 -13 0 -20 -9 -20 -8 0 -24 -10 -36 -23
-34 -36 -48 -45 -68 -44 -13 1 -20 -6 -22 -21 -3 -17 -7 -21 -16 -13 -9 8 -12
5 -12 -10 1 -23 -14 -35 -57 -44 -15 -3 -25 -10 -22 -15 4 -6 -1 -13 -9 -16
-9 -3 -13 -10 -11 -15 5 -7 -8 -12 -66 -23 -9 -2 -23 0 -30 5 -10 6 -6 9 13 9
22 0 25 4 21 21 -5 19 -12 20 -75 17 -52 -2 -67 0 -63 10 5 13 -30 13 -50 0
-6 -4 -17 -2 -25 3 -13 8 -13 10 0 19 8 5 21 10 28 10 7 0 21 7 30 17 16 15
15 16 -11 11 -20 -4 -30 -1 -34 10 -5 13 -8 12 -19 -3 -7 -10 -18 -14 -25 -9
-8 4 -10 3 -5 -4 4 -7 14 -12 23 -12 13 0 13 -3 3 -15 -15 -18 -34 -20 -24 -2
5 7 0 6 -11 -3 -17 -14 -18 -13 -13 13 4 19 1 27 -8 27 -8 0 -14 -7 -14 -16 0
-13 -6 -15 -27 -9 -31 7 -55 25 -35 25 15 0 15 29 2 50 -8 11 -9 9 -5 -11 5
-19 2 -26 -9 -26 -9 0 -16 4 -16 7 0 4 -11 8 -24 8 -17 0 -23 -5 -19 -14 3 -9
-2 -14 -12 -14 -13 0 -15 -4 -8 -12 18 -23 11 -46 -13 -45 -13 0 -21 3 -18 8
3 5 -2 9 -11 9 -8 0 -18 -7 -21 -15 -5 -12 -8 -12 -20 0 -8 7 -14 20 -14 28 0
8 -7 17 -15 21 -21 8 -47 -4 -41 -19 3 -8 -2 -16 -11 -19 -8 -4 -13 -13 -9
-21 3 -8 1 -17 -4 -20 -6 -4 -10 -1 -10 5 0 7 -7 9 -17 5 -15 -5 -16 -4 -5 6
20 21 14 29 -13 19 -14 -5 -25 -7 -25 -4 0 2 -14 -3 -31 -12 -25 -12 -29 -18
-18 -25 11 -7 10 -9 -6 -10 -11 0 -14 -3 -7 -6 6 -2 12 -8 12 -13 0 -9 -44 -7
-77 4 -12 4 -24 2 -28 -4 -9 -15 -25 -12 -19 4 3 8 1 17 -5 21 -7 3 -11 -2
-11 -13 0 -11 -7 -23 -16 -26 -12 -4 -14 -1 -9 14 7 21 -9 28 -21 9 -4 -8 -9
-8 -17 0 -14 14 -27 14 -27 0 0 -5 5 -7 11 -3 6 3 4 -5 -5 -19 -13 -19 -26
-25 -54 -25 -45 -1 -72 6 -72 19 0 6 7 6 19 -1 14 -7 22 -7 26 0 4 6 11 8 16
5 5 -4 9 -1 9 6 0 8 4 8 15 -1 8 -7 15 -8 15 -2 0 5 -7 15 -15 22 -12 10 -15
10 -15 0 0 -10 -4 -9 -16 1 -14 12 -14 14 3 20 10 4 12 8 5 8 -7 1 -10 5 -7
11 11 18 -7 10 -26 -11 -16 -19 -19 -20 -25 -5 -3 9 -10 14 -15 11 -4 -3 -5
-13 -2 -22 5 -13 0 -15 -30 -11 -29 3 -36 1 -34 -12 1 -8 6 -18 12 -22 5 -4 6
-10 2 -14 -13 -13 -38 18 -32 40 5 15 4 17 -3 7 -12 -17 -32 -6 -32 19 0 10
-5 22 -11 25 -7 5 -4 14 7 26 9 10 12 19 7 19 -6 0 -14 -7 -17 -16 -3 -8 -11
-12 -17 -8 -7 4 -7 -2 1 -17 l13 -24 -20 20 c-11 11 -18 24 -16 28 3 5 -11 6
-31 3 -20 -3 -36 -2 -36 3 0 5 -10 12 -22 14 -13 2 -7 4 13 4 49 0 68 12 45
29 -18 13 -5 31 14 19 6 -4 10 -3 9 2 -4 22 3 31 26 37 16 4 23 11 19 18 -4 7
-3 8 4 4 7 -4 12 -16 12 -27 0 -12 5 -19 13 -16 6 2 20 -2 30 -11 20 -18 22
-17 31 22 6 26 5 28 -8 17 -13 -11 -19 -9 -40 12 -14 14 -22 28 -19 31 4 3 1
6 -5 6 -7 0 -12 7 -12 15 0 8 -6 15 -12 15 -9 1 -8 4 2 13 17 14 26 42 10 32
-6 -4 -10 6 -10 25 0 17 -4 29 -9 26 -5 -4 -4 5 2 19 15 31 30 33 23 3 l-6
-23 11 22 c9 17 18 21 43 17 27 -4 28 -3 9 5 -13 6 -23 16 -23 23 0 17 -38 40
-52 32 -7 -4 -8 -3 -4 4 4 7 1 12 -8 12 -21 0 -27 14 -18 39 l8 22 21 -21 c23
-21 48 -26 57 -11 3 5 -10 12 -29 15 -20 4 -33 11 -29 17 8 13 -15 40 -28 33
-6 -4 -8 2 -6 11 1 10 9 20 16 23 7 2 10 -2 6 -11 -8 -22 14 -31 31 -13 8 8
15 18 15 22 0 12 -42 44 -51 38 -5 -3 -9 0 -9 5 0 6 7 11 15 11 8 0 12 6 9 14
-3 9 3 17 15 21 11 3 27 20 36 38 15 29 15 33 -2 44 -16 12 -16 13 0 13 9 0
17 -3 17 -7 0 -5 37 -9 83 -11 45 -1 107 -7 137 -14 30 -6 68 -10 84 -9 16 2
33 -3 37 -11 6 -8 9 -9 9 -1 0 11 30 16 170 28 85 8 221 30 290 49 133 35 377
137 394 165 4 6 12 8 19 5 7 -2 33 10 58 28 24 19 57 40 73 48 57 29 66 35 66
44 0 4 -10 5 -22 1 -13 -3 -28 -7 -35 -7 -6 -1 -9 -7 -6 -13 3 -8 -4 -11 -20
-8 -17 3 -26 -2 -35 -19 -7 -13 -10 -15 -8 -6 4 12 1 15 -10 11 -7 -3 -14 -9
-14 -15 0 -5 -4 -6 -10 -3 -5 3 -10 2 -10 -4 0 -6 -7 -8 -15 -5 -10 4 -15 0
-15 -11 0 -11 -5 -15 -16 -11 -9 4 -13 2 -8 -5 4 -7 -1 -9 -17 -5 -13 3 -18 3
-11 0 18 -8 -4 -34 -30 -34 -28 0 -107 -21 -106 -29 2 -18 -4 -19 -21 -4 -11
9 -17 23 -13 32 3 9 -11 -1 -31 -21 -21 -23 -41 -36 -50 -32 -8 3 -17 -2 -21
-12 -5 -13 -9 -14 -21 -4 -13 11 -14 10 -10 -2 4 -9 0 -18 -9 -21 -10 -4 -13
-1 -10 7 3 8 1 17 -5 21 -6 3 -11 -1 -11 -9 0 -8 -5 -18 -12 -22 -6 -4 -8 -3
-4 4 3 6 2 13 -3 16 -5 4 -12 2 -16 -4 -9 -15 -25 -12 -19 3 3 10 -5 12 -31 9
-19 -2 -35 -8 -35 -12 0 -5 -9 -6 -20 -3 -11 3 -26 1 -33 -5 -7 -6 -22 -10
-32 -8 -11 2 -23 -2 -27 -8 -6 -8 -11 -7 -17 3 -8 12 -12 12 -25 2 -12 -10
-19 -11 -30 -2 -11 9 -17 9 -27 -2 -23 -22 -49 -28 -49 -12 0 8 5 15 12 15 6
0 9 2 7 5 -3 2 -20 0 -38 -5 -35 -10 -51 -2 -64 34 -4 10 -10 16 -13 13 -3 -3
-1 -14 5 -26 17 -32 -6 -36 -24 -4 -9 15 -14 20 -11 11 3 -10 0 -18 -7 -19 -7
0 -21 -2 -33 -3 -17 -2 -20 2 -17 23 3 23 2 24 -6 6 -6 -11 -10 -14 -10 -6 -1
10 -4 11 -14 2 -10 -8 -21 -7 -40 2 -28 13 -36 27 -15 27 7 0 8 3 2 9 -15 14
-70 21 -81 10 -6 -6 -14 -5 -23 6 -11 13 -9 15 11 15 19 0 21 2 9 9 -8 6 -18
7 -22 5 -4 -3 -5 2 -2 10 3 9 1 16 -5 16 -6 0 -11 -4 -11 -9 0 -5 -7 -12 -16
-15 -14 -5 -15 -4 -4 9 10 12 10 15 -2 15 -8 0 -20 -6 -27 -12 -11 -10 -13
-10 -7 0 4 6 2 12 -4 12 -6 0 -8 11 -5 28 l6 27 -15 -30 c-8 -16 -15 -24 -15
-17 -1 7 -17 29 -37 47 -21 20 -33 39 -29 46 6 8 2 8 -13 0 -15 -8 -23 -7 -32
4 -7 8 -19 15 -26 15 -8 0 -14 5 -14 10 0 6 7 10 15 10 8 0 15 3 15 8 0 10
-39 34 -48 28 -4 -2 -14 3 -22 12 -13 14 -12 15 5 8 18 -7 18 -6 2 12 -11 12
-15 26 -11 38 6 18 6 18 -9 -1 -16 -19 -17 -18 -21 18 0 6 -11 13 -23 13 -35
2 -36 3 -22 20 12 15 11 16 -9 10 -16 -5 -22 -3 -22 8 0 10 -6 13 -15 10 -9
-4 -15 0 -15 9 0 9 -9 23 -21 31 -13 9 -18 19 -14 27 6 8 4 10 -4 5 -8 -5 -12
-3 -11 5 4 31 -13 61 -31 56 -21 -6 -27 9 -7 15 7 3 -1 18 -20 38 -34 35 -40
50 -20 50 6 0 8 3 5 7 -4 3 -16 -2 -27 -12 -11 -10 -20 -16 -20 -12 0 3 -3 13
-6 21 -4 11 -2 15 8 11 8 -3 20 1 27 9 11 13 9 14 -13 10 -19 -3 -26 0 -26 11
0 8 -5 15 -11 15 -5 0 -8 -4 -5 -8 3 -5 -1 -9 -9 -9 -8 0 -15 8 -15 18 0 10
-5 21 -11 25 -6 3 -9 17 -6 30 4 25 -8 33 -16 12 -4 -8 -6 -6 -7 5 -2 9 -4 22
-5 27 -1 6 -3 13 -4 18 -1 4 -6 0 -12 -8 -9 -13 -10 -12 -5 3 3 10 -2 25 -12
35 -27 27 -35 54 -20 65 9 6 5 7 -11 4 -20 -5 -25 0 -39 34 -8 21 -18 39 -22
39 -4 0 -11 17 -15 37 -9 50 -14 56 -31 42 -8 -6 -17 -9 -21 -5 -3 3 0 7 8 8
8 0 -6 4 -31 8 -38 6 -42 8 -22 15 28 9 28 52 -1 47 -9 -2 -20 4 -23 13 -3 8
-11 15 -16 15 -6 0 -18 9 -27 19 -10 12 -22 16 -29 12 -9 -5 -5 -11 13 -19 25
-11 34 -32 15 -32 -5 0 -10 -4 -10 -10 0 -5 7 -10 15 -10 20 0 19 -10 -2 -27
-16 -13 -16 -14 9 -9 22 5 25 3 21 -12 -3 -12 4 -22 20 -29 16 -7 28 -23 32
-42 4 -17 11 -31 16 -31 5 0 9 -8 9 -17 -1 -16 -2 -16 -15 1 -13 17 -15 17
-21 3 -7 -20 2 -50 14 -43 5 3 8 -5 7 -17 -1 -12 4 -28 12 -35 32 -33 7 -41
-50 -17 -25 10 -35 20 -31 30 4 8 1 21 -5 29 -6 7 -8 16 -4 19 3 4 2 7 -3 7
-6 0 -15 -5 -20 -10 -7 -7 -17 -3 -32 10 -11 11 -26 20 -32 20 -5 0 -10 7 -10
16 0 8 4 12 10 9 6 -3 7 1 4 9 -3 8 -14 18 -25 21 -11 4 -17 10 -14 15 6 9
-51 60 -67 60 -7 0 -6 5 1 14 9 10 8 15 -4 20 -8 3 -15 12 -15 21 0 8 -6 15
-14 15 -8 0 -17 9 -21 19 -3 12 -12 18 -20 15 -7 -3 -13 1 -12 8 1 34 -4 48
-19 48 -11 0 -14 6 -9 20 4 11 2 20 -4 20 -6 0 -11 7 -11 16 0 14 -2 14 -16
-1 -15 -15 -18 -15 -35 1 -11 9 -19 25 -19 35 0 18 -32 43 -43 33 -7 -7 -47
46 -48 65 0 12 -2 11 -8 -4 -7 -17 -9 -16 -15 13 -4 18 -14 32 -22 32 -8 0
-14 5 -14 11 0 5 -4 7 -10 4 -5 -3 -12 5 -16 19 -6 24 -29 52 -49 57 -5 2 -9
10 -7 17 2 8 -3 19 -12 25 -18 15 -35 94 -17 83 6 -4 9 -12 6 -17 -4 -5 -1 -9
4 -9 11 0 15 13 12 36 -2 15 27 26 34 14 4 -6 14 -10 23 -10 15 0 15 2 2 10
-11 7 -7 10 18 10 26 0 30 3 21 13 -7 7 -25 11 -41 9 -22 -3 -28 0 -28 15 0
13 -6 19 -20 18 -23 -2 -40 -15 -19 -15 10 -1 9 -4 -4 -11 -9 -6 -15 -14 -12
-20 4 -5 1 -9 -5 -9 -8 0 -10 9 -6 25 5 20 3 23 -10 18 -14 -5 -15 -3 -5 15 9
17 7 23 -16 40 l-27 19 18 37 c17 35 31 51 20 21 -4 -8 -2 -15 4 -15 6 0 9 6
8 13 -2 16 -53 66 -60 59 -3 -3 -6 2 -6 11 0 13 9 17 33 17 24 0 28 -3 17 -10
-18 -11 -3 -12 25 -1 19 8 19 8 -2 15 -13 4 -23 13 -23 20 0 7 -11 18 -25 24
-26 12 -33 4 -14 -15 9 -9 7 -10 -10 -6 -28 7 -27 37 3 60 18 15 21 23 15 42
-5 12 -6 27 -3 32 3 5 -2 12 -10 15 -9 3 -16 12 -16 20 0 12 4 12 19 2 11 -7
18 -15 16 -18 -6 -10 34 -40 53 -40 14 0 15 2 2 10 -12 8 -10 10 8 10 21 0 22
2 8 15 -8 8 -19 15 -25 15 -5 0 -13 5 -17 12 -5 7 -3 8 6 3 8 -5 11 -4 6 3 -4
6 -13 9 -21 6 -9 -4 -18 3 -24 17 -6 15 -10 18 -10 8 -1 -9 -12 -21 -26 -27
-22 -10 -25 -9 -36 22 -7 19 -17 32 -24 30 -6 -3 -21 9 -33 26 -13 17 -17 30
-11 30 7 0 17 -7 24 -17 8 -11 18 -14 31 -8 18 8 18 8 -1 13 -21 5 -72 41 -61
43 3 1 10 2 15 3 5 0 13 5 18 10 5 5 3 6 -4 2 -11 -6 -17 4 -15 25 1 4 -6 6
-16 5 -13 -1 -16 6 -14 27 3 30 -14 38 -21 10 -4 -16 -5 -16 -6 -1 0 9 4 20 9
23 15 9 12 25 -5 25 -8 0 -15 -6 -15 -12 0 -9 -4 -8 -10 2 -19 30 -12 40 28
34 31 -4 39 -2 39 10 0 9 -4 16 -9 16 -4 0 -8 -4 -8 -8 0 -5 -10 -8 -22 -6
-13 1 -34 3 -48 3 -22 1 -23 3 -7 12 9 6 15 14 12 20 -10 15 12 10 25 -6 7 -8
17 -15 23 -15 6 0 1 7 -12 16 -18 13 -20 18 -10 26 9 6 3 7 -18 3 -31 -6 -48
8 -21 17 24 8 -3 26 -35 23 -17 -2 -26 -1 -20 2 9 3 10 10 3 23 -11 21 -47 33
-53 17 -2 -6 -9 -7 -17 -2 -10 6 -8 10 11 17 l24 9 -24 20 c-19 15 -20 19 -6
19 11 0 15 5 12 14 -3 8 -1 17 6 19 7 2 9 8 4 12 -4 5 -14 0 -21 -11 -8 -10
-18 -16 -22 -12 -4 4 -1 14 6 23 8 9 9 15 2 15 -6 0 -15 -7 -20 -16 -6 -10
-12 -13 -16 -6 -8 14 4 43 15 36 5 -3 9 1 10 8 5 81 5 79 -25 85 -24 5 -26 7
-11 16 11 6 20 6 24 -1 4 -6 9 -6 16 2 12 14 16 48 4 41 -11 -8 -28 28 -24 51
2 10 4 27 4 38 1 11 6 16 15 13 14 -6 15 5 1 36 -8 19 -44 23 -63 7 -8 -7 -9
-7 -3 1 5 6 7 18 4 25 -3 9 1 14 12 14 9 0 13 5 10 10 -4 6 -11 8 -16 5 -5 -4
-9 -1 -9 5 0 7 -9 9 -22 5 -18 -5 -20 -4 -8 4 12 9 10 11 -12 12 -48 3 -51 4
-56 18 -3 8 0 11 6 7 17 -11 52 12 46 29 -10 24 -26 18 -62 -22 -30 -33 -33
-35 -27 -13 4 14 12 27 17 28 13 5 -11 32 -29 32 -8 0 -12 4 -9 9 8 12 -4 41
-16 41 -6 0 -8 -7 -5 -15 4 -8 1 -17 -5 -21 -6 -4 -8 -3 -4 4 3 6 1 14 -4 17
-7 5 -5 12 7 22 10 8 12 12 6 8 -20 -10 -15 12 5 27 10 7 21 20 24 29 5 14 3
15 -17 5 -13 -6 -21 -14 -19 -18 3 -5 -2 -11 -10 -14 -9 -3 -16 -11 -16 -18 0
-14 -35 -37 -44 -29 -12 12 -6 22 9 17 9 -4 15 0 15 9 0 8 6 18 13 21 9 3 7 8
-5 19 -13 10 -15 16 -6 25 9 9 9 12 0 12 -6 0 -9 7 -6 15 4 9 0 15 -8 15 -17
0 -20 29 -4 31 6 1 21 0 34 -1 14 -1 22 4 22 13 0 9 3 23 7 33 5 13 3 16 -10
11 -10 -4 -17 -1 -17 6 0 7 -8 0 -18 -16 -10 -15 -22 -24 -25 -20 -12 11 -8
24 6 18 6 -4 3 1 -7 9 -19 16 -19 16 2 16 26 0 29 15 5 24 -9 4 -20 1 -25 -6
-4 -7 -8 -8 -8 -2 0 5 6 16 13 23 10 11 9 14 -1 18 -10 4 -10 10 3 29 9 14 13
28 10 33 -2 5 2 12 11 15 8 3 12 2 9 -4 -3 -6 -1 -10 4 -10 14 0 14 37 1 45
-5 3 -10 1 -10 -6 0 -7 -3 -9 -6 -6 -4 4 -1 13 6 22 7 9 10 19 6 22 -4 4 -11
1 -16 -7 -6 -8 -10 -10 -10 -4 0 20 23 34 37 23 8 -7 13 -8 13 -1 0 10 56 10
66 -1 4 -3 15 -1 25 6 14 9 21 9 31 -1 11 -11 10 -16 -4 -26 -12 -8 -16 -21
-12 -39 2 -15 0 -27 -6 -27 -19 0 -10 -17 15 -28 21 -10 25 -9 25 3 0 8 -5 15
-11 15 -13 0 8 20 39 38 49 27 76 0 70 -71 -2 -34 0 -41 12 -38 13 4 54 8 103
10 9 1 17 8 17 16 0 19 4 19 40 0 35 -18 38 -30 10 -45 -11 -6 -18 -15 -15
-20 4 -6 16 -3 30 6 13 9 32 14 42 12 10 -2 26 5 35 15 10 11 24 17 33 13 8
-3 27 -1 42 5 19 7 28 6 34 -2 4 -7 15 -9 25 -5 12 5 15 4 9 -2 -5 -6 -19 -12
-29 -14 -11 -1 -21 -9 -24 -17 -3 -10 3 -12 24 -7 16 3 42 8 59 11 16 2 31 9
33 14 2 5 12 7 22 4 11 -3 20 -1 20 5 0 5 11 13 24 16 14 3 32 13 40 22 9 8
16 11 16 6 0 -5 23 -5 58 0 31 5 70 9 87 8 37 -1 85 9 85 19 0 8 -95 6 -165
-4 -27 -4 -56 -7 -62 -6 -45 4 -44 3 -28 21 14 16 14 18 -5 23 -13 3 -18 1
-13 -6 3 -7 -2 -4 -13 5 -12 10 -25 14 -32 9 -21 -13 -91 10 -84 27 3 10 1 13
-6 8 -6 -3 -13 -3 -16 2 -5 8 34 15 97 16 22 1 37 6 37 13 0 7 -8 12 -17 11
-41 -3 -51 2 -46 22 3 11 9 23 14 26 5 3 6 -3 2 -13 -6 -15 -4 -16 8 -6 19 15
119 8 131 -9 6 -10 10 -10 16 0 6 9 13 7 30 -8 22 -21 44 -28 24 -8 -17 17
-15 29 3 22 11 -5 13 -2 9 10 -3 9 -1 16 5 16 6 0 11 5 11 11 0 15 -26 39 -34
32 -3 -4 -6 -2 -6 4 0 13 45 23 60 13 9 -6 9 -9 1 -14 -6 -4 -9 -12 -5 -17 3
-5 10 -6 16 -3 6 4 8 -1 6 -12 -2 -11 3 -25 12 -32 13 -11 13 -12 -4 -10 -10
2 -21 -2 -23 -8 -3 -10 8 -11 77 -5 23 2 23 3 5 10 -16 6 -19 16 -17 47 3 30
1 36 -8 27 -14 -13 -40 -7 -40 9 0 6 6 8 13 5 7 -3 21 1 32 9 24 18 55 18 55
0 0 -7 7 -19 15 -26 12 -10 16 -8 24 11 7 19 4 26 -13 36 -20 11 -20 12 -1 12
50 1 97 14 84 22 -10 6 -8 9 8 9 12 0 24 -6 26 -12 3 -8 6 -5 6 6 1 16 7 18
36 13 19 -3 35 -2 35 4 0 5 11 9 25 9 34 0 32 -19 -4 -31 -16 -6 -32 -17 -35
-25 -3 -7 -11 -11 -19 -8 -8 3 -19 -2 -26 -10 -10 -12 -7 -13 21 -7 18 5 56
19 83 34 28 14 61 28 74 32 39 12 15 -12 -34 -34 -51 -22 -60 -47 -17 -45 16
0 28 7 30 17 2 9 9 14 18 10 7 -3 17 2 20 11 3 9 15 16 26 16 18 0 19 -2 7
-17 -11 -13 -11 -17 -1 -20 6 -3 12 -12 12 -21 0 -8 3 -12 7 -9 3 4 11 3 17
-2 20 -16 76 -24 76 -11 0 7 -6 10 -13 7 -7 -3 -22 2 -32 10 -16 11 -17 15 -6
22 9 6 19 4 28 -5 8 -7 19 -17 26 -21 7 -5 18 -18 25 -31 12 -21 11 -24 -7
-29 -12 -3 -18 -10 -15 -15 4 -6 3 -13 -2 -17 -13 -9 -44 -70 -44 -86 0 -7 -7
-18 -16 -26 -13 -11 -15 -9 -11 12 2 13 -1 9 -7 -9 -6 -20 -15 -31 -23 -28 -7
3 -14 -1 -14 -9 -4 -49 -3 -77 4 -82 4 -2 7 -10 7 -16 0 -7 -4 -6 -10 3 -8 11
-9 7 -4 -15 8 -36 14 -45 14 -22 0 9 5 17 12 17 6 0 8 3 5 6 -3 4 -2 16 4 27
8 14 8 18 0 13 -6 -4 -11 -2 -11 3 0 18 42 13 56 -6 12 -16 13 -15 4 10 -8 23
-6 32 11 50 14 14 23 18 26 10 2 -6 13 -21 24 -34 10 -12 19 -24 19 -26 0 -11
-29 -31 -35 -25 -4 4 -3 -3 4 -15 15 -29 30 -38 44 -24 6 6 20 11 31 11 19 0
19 -1 1 -13 -14 -11 -17 -22 -12 -45 6 -27 4 -32 -13 -32 -11 0 -20 -4 -20
-10 0 -5 5 -10 10 -10 6 0 10 -6 10 -13 0 -7 10 -13 23 -14 12 0 16 1 9 4 -6
3 -9 9 -6 15 4 5 15 -3 25 -19 23 -34 24 -43 4 -43 -8 0 -15 4 -15 9 0 17 -69
-24 -70 -41 0 -11 5 -15 15 -12 9 4 15 0 15 -8 0 -19 -67 -41 -73 -24 -2 6 -8
8 -12 4 -5 -5 0 -17 11 -29 19 -21 19 -21 -14 -16 -32 5 -33 5 -17 -13 18 -20
12 -65 -7 -54 -7 4 -8 2 -4 -4 4 -6 13 -9 21 -5 8 3 15 0 15 -6 0 -15 -33 -14
-49 2 -11 10 -13 10 -7 0 5 -9 0 -13 -14 -13 -18 0 -20 -4 -14 -22 4 -13 12
-26 18 -30 7 -5 5 -8 -6 -8 -11 0 -15 -5 -12 -14 4 -11 0 -13 -18 -9 -21 6
-22 5 -9 -11 12 -15 11 -19 -6 -36 -12 -10 -23 -16 -26 -14 -3 3 -4 -6 -3 -20
4 -29 -17 -51 -36 -40 -7 4 -6 -1 3 -10 22 -24 3 -69 -25 -60 -16 5 -18 2 -12
-20 3 -14 2 -26 -3 -26 -5 0 -11 -10 -13 -22 -2 -13 -9 -22 -16 -20 -12 2 -14
-6 -14 -48 0 -33 1 -35 17 -14 14 18 14 18 8 -3 -5 -23 -43 -34 -43 -13 0 6
-5 10 -11 10 -5 0 -7 -5 -4 -11 4 -6 -1 -17 -11 -25 -11 -9 -13 -13 -6 -9 6 3
12 0 12 -7 0 -10 2 -10 8 0 5 7 27 13 49 15 29 1 38 5 32 13 -12 15 -3 36 22
52 12 8 18 9 14 3 -3 -6 -1 -11 5 -11 6 0 8 -5 5 -10 -4 -6 -11 -7 -17 -4 -7
4 -8 2 -4 -4 4 -7 2 -12 -4 -12 -6 0 -8 -5 -4 -12 6 -9 9 -9 12 0 2 7 8 12 14
12 6 0 8 -7 5 -14 -4 -9 2 -17 14 -21 10 -4 19 -14 19 -23 0 -11 -3 -13 -8 -6
-4 6 -16 13 -28 16 -19 5 -20 3 -10 -17 6 -13 14 -21 18 -19 15 9 1 -58 -15
-77 -23 -26 -22 -29 11 -30 21 -1 23 -2 7 -7 l-20 -5 20 -8 c17 -6 17 -8 3 -8
-10 -1 -16 -7 -14 -13 1 -7 1 -10 -1 -6 -7 11 -33 -3 -44 -23 -6 -13 -6 -19 1
-19 5 0 10 7 10 16 0 8 5 12 10 9 7 -4 7 -12 0 -24 -5 -10 -6 -22 -2 -26 4 -4
-3 -2 -15 4 -13 7 -23 8 -23 2 0 -5 5 -11 11 -13 6 -2 9 -14 7 -28 -3 -23 -4
-23 -21 -6 -10 10 -24 15 -32 12 -11 -4 -15 2 -15 21 0 21 -2 23 -15 13 -8 -6
-19 -9 -25 -5 -5 3 -10 1 -10 -4 0 -6 7 -11 15 -11 28 0 15 -17 -27 -34 -24
-10 -37 -20 -30 -23 7 -3 19 1 27 7 12 10 15 9 15 -4 0 -9 -4 -16 -10 -16 -5
0 -8 -13 -6 -30 2 -16 -1 -27 -6 -24 -5 3 -7 12 -4 20 7 17 -20 19 -28 2 -4
-7 -5 -4 -3 7 4 20 -4 32 -30 49 -9 5 -13 0 -13 -18 0 -18 4 -24 15 -20 8 4
15 2 15 -4 0 -5 -16 -10 -35 -9 -38 1 -46 11 -18 21 15 6 15 8 3 17 -13 8 -13
10 0 20 12 9 11 10 -7 6 -29 -6 -38 7 -17 24 13 10 17 10 24 0 11 -19 18 0 9
29 -4 16 -7 19 -8 8 -1 -11 -6 -15 -16 -12 -9 4 -15 0 -15 -9 0 -8 -7 -18 -16
-21 -8 -3 -13 -10 -9 -15 3 -5 -4 -12 -15 -16 -11 -3 -20 -13 -20 -20 0 -8 -6
-12 -14 -9 -10 4 -12 -2 -9 -20 4 -20 1 -26 -12 -26 -11 0 -15 5 -11 15 3 9 0
15 -9 15 -8 0 -15 -4 -15 -9 0 -5 -3 -18 -6 -28 -5 -15 -4 -15 5 -3 13 18 14
1 2 -19 -8 -13 -12 -13 -27 0 -16 13 -17 12 -11 -10 6 -26 -12 -51 -38 -51 -9
0 -14 -4 -11 -9 8 -13 36 -7 46 9 5 8 12 12 15 8 9 -8 -15 -48 -44 -74 -15
-14 -19 -24 -12 -28 17 -11 13 -26 -6 -26 -13 0 -14 -3 -6 -8 7 -4 14 -19 15
-32 2 -14 7 -28 12 -31 4 -4 9 -21 11 -40 2 -35 18 -49 31 -28 5 8 3 9 -6 4
-9 -6 -11 -4 -5 5 4 7 8 21 9 31 1 11 4 19 9 19 4 0 11 0 17 0 5 0 7 -7 4 -15
-5 -12 0 -12 28 -5 18 6 34 14 36 19 2 5 13 7 25 5 22 -5 22 -5 0 5 -13 6 -23
13 -23 16 0 8 24 6 39 -4 12 -8 12 -12 2 -25 -7 -8 -18 -13 -26 -10 -21 8 -13
-29 10 -43 14 -9 16 -12 5 -13 -13 0 -13 -1 0 -10 8 -5 24 -7 36 -4 12 3 26
-1 33 -10 8 -10 9 -16 3 -16 -6 0 -14 5 -17 10 -7 12 -25 13 -25 3 0 -5 11
-13 25 -20 21 -9 27 -8 36 5 8 14 9 13 4 -5 -3 -12 -1 -24 5 -28 5 -3 10 1 10
9 0 24 18 28 51 12 16 -8 37 -12 45 -9 9 3 19 -7 29 -31 16 -38 24 -43 42 -25
8 8 24 4 57 -16 47 -28 55 -40 34 -48 -7 -3 3 -5 22 -4 19 1 37 -2 39 -8 2 -5
12 -22 22 -37 10 -14 19 -31 19 -37 0 -6 7 -11 16 -11 24 0 6 -20 -19 -21 -21
0 -21 -1 -2 -8 11 -5 23 -7 26 -5 3 1 22 -15 43 -37 21 -21 43 -39 47 -39 5 0
9 -7 9 -16 0 -10 6 -14 15 -10 10 4 14 -1 12 -17 -1 -15 3 -22 14 -21 11 1 14
-7 12 -30 -2 -17 0 -25 3 -18 6 13 24 7 24 -9 0 -18 -32 -9 -37 11 -5 20 -33
29 -33 10 0 -5 5 -10 11 -10 5 0 7 -4 4 -10 -3 -5 -1 -10 4 -10 6 0 11 -7 11
-15 0 -9 9 -15 24 -15 14 0 28 -4 31 -10 3 -5 1 -10 -4 -10 -6 0 -11 -4 -11
-9 0 -5 6 -9 13 -8 36 1 45 -4 40 -22 -3 -10 0 -22 6 -25 7 -5 11 2 11 15 0
17 3 20 11 12 6 -6 17 -9 24 -7 18 7 26 -33 9 -47 -8 -7 -12 -14 -10 -17 3 -2
13 4 23 14 17 16 18 16 21 1 2 -10 8 -15 13 -12 5 4 9 1 9 -4 0 -6 7 -11 15
-11 8 0 15 -6 15 -12 0 -7 8 -3 18 9 17 23 50 23 78 2 6 -5 14 -6 18 -2 3 4
13 -3 22 -15 16 -23 37 -21 28 3 -4 10 0 12 15 8 11 -3 18 -10 14 -16 -4 -7 0
-8 13 -2 21 9 24 9 99 6 28 -2 106 5 175 14 69 10 148 18 175 20 69 2 72 3 72
19 0 10 -14 13 -54 12 -36 -1 -53 3 -53 12 0 14 -9 15 -29 3 -9 -6 -24 -5 -38
2 -24 10 -24 12 -6 25 17 13 16 14 -7 7 -36 -11 -50 -24 -44 -43 5 -15 4 -15
-9 0 -8 10 -17 15 -20 11 -4 -3 -7 -1 -7 5 0 7 -7 12 -15 12 -8 0 -15 7 -15
15 0 8 7 15 16 15 18 0 46 25 38 33 -3 3 3 3 15 0 24 -6 28 9 7 26 -13 11 -12
16 7 37 14 16 27 22 39 18 11 -3 26 0 35 8 9 7 41 14 72 15 78 3 114 7 127 15
6 4 34 10 64 13 29 3 59 13 67 21 8 8 26 14 41 14 30 0 100 32 128 59 17 16
22 17 47 4 25 -13 27 -12 27 7 0 11 6 21 13 21 28 3 53 -3 62 -16 9 -11 15
-10 35 6 14 10 33 19 43 19 9 0 17 5 17 11 0 5 5 7 12 3 8 -5 9 -2 4 11 -5 14
-4 16 8 6 11 -9 15 -5 20 23 7 36 26 59 26 32 0 -9 5 -16 11 -16 5 0 8 -4 5
-9 -4 -5 2 -7 13 -4 13 3 18 13 17 34 -1 16 -4 29 -8 29 -5 0 -8 5 -8 11 0 6
9 8 20 4 32 -10 51 11 39 43 -6 15 -16 30 -22 35 -7 5 -1 7 16 4 22 -3 27 -1
22 11 -7 20 25 43 46 31 13 -6 18 -3 23 14 l7 22 9 -22 c5 -13 15 -23 22 -23
9 0 8 3 -2 10 -11 7 -12 14 -5 26 6 9 15 16 19 14 5 -1 13 6 18 15 9 15 11 15
23 -2 12 -16 13 -14 12 17 -2 29 2 36 20 38 17 2 25 14 33 42 6 21 22 48 35
58 14 11 25 24 25 29 0 6 11 22 25 37 14 15 25 32 25 39 0 8 3 8 9 -1 6 -10
10 -7 15 12 3 14 11 26 16 26 6 0 10 6 10 14 0 7 7 19 15 26 9 7 14 18 12 25
-3 6 8 17 24 24 24 10 27 16 18 27 -8 9 -8 14 -1 14 6 0 14 -5 17 -10 12 -19
47 -10 81 19 34 31 30 40 -19 42 l-22 0 23 11 c12 6 22 15 22 21 0 5 -10 6
-22 2 -13 -4 -45 -11 -73 -15 -82 -14 -124 -29 -245 -87 -63 -31 -125 -56
-137 -57 -12 -1 -26 -5 -30 -10 -4 -4 -3 -7 2 -6 28 6 27 -2 -3 -20 -37 -23
-55 -27 -26 -6 10 8 15 18 11 22 -4 5 -11 4 -15 -1 -11 -16 -72 -45 -72 -35 0
5 -7 7 -15 4 -8 -4 -15 -16 -15 -28 -1 -21 -1 -21 -15 -2 -8 11 -15 14 -15 7
0 -7 -4 -9 -10 -6 -5 3 -10 -1 -10 -9 0 -9 -3 -16 -7 -17 -46 -4 -67 -10 -74
-21 -4 -7 -11 -10 -14 -7 -3 4 -19 -6 -36 -22 -17 -16 -50 -34 -72 -41 -23 -7
-45 -16 -48 -21 -3 -4 -26 -9 -50 -10 -39 -2 -44 1 -47 21 -3 19 -19 28 -46
23 -5 -1 -6 5 -3 13 5 11 0 13 -21 7 -15 -5 -33 -6 -40 -4 -7 3 -27 -2 -45
-10 -18 -8 -46 -20 -64 -28 -17 -7 -30 -16 -28 -20 3 -3 -9 -5 -26 -3 -33 4
-37 -18 -4 -25 26 -5 205 30 205 41 0 4 8 8 18 8 13 0 10 -6 -13 -25 -16 -14
-41 -24 -55 -24 -25 2 -46 -4 -87 -23 -12 -6 -40 -8 -62 -4 -22 3 -42 2 -46
-3 -7 -13 -46 -10 -64 3 -11 8 -13 8 -7 -1 4 -7 3 -13 -3 -13 -6 0 -13 11 -17
24 -8 34 -41 63 -56 48 -6 -6 -20 -7 -32 -3 -11 4 -41 6 -64 5 -24 -1 -54 4
-67 10 -12 7 -36 12 -51 11 -26 0 -54 15 -54 29 0 3 9 6 21 6 11 0 17 5 14 10
-4 6 -12 7 -18 3 -7 -4 -6 1 2 11 12 14 12 22 3 37 -10 16 -9 19 6 19 10 0 24
-6 31 -12 10 -11 12 -9 11 7 -4 35 0 45 15 45 8 0 15 5 15 11 0 7 -9 5 -24 -4
-13 -9 -26 -13 -30 -10 -6 7 57 53 72 53 6 0 20 11 33 24 15 16 28 21 35 15 7
-6 15 0 24 16 14 26 51 42 70 30 6 -4 18 -1 26 6 12 10 13 9 8 -5 -4 -12 0
-16 15 -16 12 0 21 4 21 9 0 5 8 17 17 27 15 15 15 18 2 28 -9 6 -14 17 -11
25 3 8 0 11 -6 8 -11 -8 -35 17 -26 26 9 8 -15 30 -50 45 -25 11 -31 11 -46
-5 -9 -10 -15 -24 -13 -30 6 -16 -76 -10 -107 8 -13 8 -35 25 -48 39 -13 14
-34 25 -46 25 -12 0 -20 6 -18 13 1 8 -2 11 -7 7 -6 -3 -16 3 -22 14 -7 11
-19 17 -28 13 -10 -4 -13 -1 -8 11 4 11 2 14 -9 10 -10 -4 -14 2 -14 22 0 19
-6 28 -20 32 -22 6 -22 30 -1 25 7 -1 10 2 6 8 -3 6 -11 8 -16 5 -5 -4 -9 2
-10 12 0 10 -3 13 -5 6 -3 -7 -12 -9 -21 -6 -13 5 -12 8 5 17 19 10 19 12 4
31 -9 12 -26 25 -37 29 -19 8 -19 9 5 16 21 7 22 8 5 10 -19 1 -18 2 3 10 12
5 22 12 22 14 0 3 -7 3 -15 0 -11 -5 -13 -2 -9 9 3 10 12 13 22 10 11 -4 9 1
-6 15 l-23 21 22 11 c20 11 20 13 6 22 -22 12 -23 53 -1 44 9 -3 12 -2 9 5 -4
5 -15 7 -25 4 -11 -3 -20 0 -24 10 -4 12 -1 15 13 10 10 -3 24 1 31 10 7 8 9
15 5 15 -4 0 -2 7 5 15 8 9 8 15 2 15 -6 0 -12 -6 -15 -12 -2 -7 -8 -10 -12
-6 -4 4 2 19 14 34 17 21 19 29 9 35 -11 7 -11 12 0 29 10 17 10 20 -5 20 -15
0 -14 2 2 14 11 8 24 12 29 9 5 -4 6 -1 2 5 -4 7 -14 12 -21 12 -9 0 -12 6 -8
16 3 9 0 20 -8 25 -9 6 -3 8 19 5 17 -2 32 1 32 5 0 5 -5 9 -11 9 -18 0 -41
30 -35 45 6 17 26 20 26 5 0 -5 -5 -10 -12 -10 -6 0 -9 -2 -7 -5 3 -2 14 -2
26 1 26 7 20 29 -10 39 -19 6 -20 8 -4 12 9 2 15 8 12 13 -3 4 5 6 17 2 21 -5
22 -4 9 11 -7 9 -20 17 -27 17 -8 0 -14 5 -14 11 0 6 9 9 20 6 17 -4 18 -2 9
14 -11 22 -25 25 -32 7 -3 -8 -6 -6 -6 5 -1 9 6 17 15 17 8 0 12 5 8 11 -3 6
3 24 15 40 11 15 21 32 21 36 0 4 -4 2 -9 -6 -8 -12 -14 -13 -35 -3 -22 10
-25 16 -20 42 5 22 3 30 -7 31 -8 0 -4 4 9 9 19 8 21 13 13 28 -7 13 -7 22 0
29 8 8 5 13 -11 18 -17 5 -19 9 -9 22 10 12 10 16 -1 23 -8 5 -11 18 -7 39 5
23 3 31 -7 31 -11 0 -12 8 -6 35 6 26 4 39 -6 49 -10 10 -10 16 -2 18 6 2 12
11 14 20 1 10 -3 15 -11 12 -7 -3 -15 4 -18 16 -5 19 -2 20 29 14 22 -4 34 -2
34 5 0 6 -10 10 -22 8 -17 -1 -24 4 -26 21 -2 15 2 22 13 22 9 0 14 4 11 9 -3
5 -16 7 -29 3 -20 -5 -21 -4 -8 11 8 11 9 17 3 17 -6 0 -9 7 -6 15 4 8 1 15
-6 15 -8 0 -11 9 -8 25 4 17 1 25 -8 25 -12 0 -12 4 -2 21 10 17 10 23 1 26
-7 3 -13 11 -13 18 0 7 -6 16 -12 18 -9 4 -10 8 -2 14 14 11 12 52 -4 81 -10
18 -10 22 0 23 10 0 10 2 1 6 -7 2 -13 11 -13 19 0 8 -7 14 -15 14 -8 0 -15 5
-15 11 0 6 7 9 15 5 8 -3 15 -1 15 5 0 6 -9 13 -20 16 -11 3 -20 14 -20 24 0
11 -3 18 -7 18 -20 -3 -24 2 -13 16 10 12 10 15 -4 15 -9 0 -16 5 -16 11 0 6
7 9 15 5 10 -4 15 1 15 15 0 11 -7 22 -15 25 -9 4 -15 20 -16 43 0 25 -3 31
-8 18 -6 -17 -8 -16 -19 9 -11 22 -11 29 0 35 9 6 4 9 -14 9 -15 0 -30 5 -33
10 -3 6 -1 10 6 10 8 0 8 4 -1 15 -7 9 -19 14 -26 11 -19 -7 -26 10 -11 26 12
11 10 17 -11 33 -22 16 -25 16 -19 2 3 -9 4 -17 1 -17 -13 0 -20 45 -8 57 16
16 44 17 44 1 0 -9 3 -9 13 1 10 10 8 14 -6 22 -9 6 -15 15 -11 21 4 6 -1 8
-15 3 -15 -5 -21 -2 -21 9 0 9 0 19 -1 23 0 4 5 9 13 11 9 2 8 0 -2 -7 -12 -8
-9 -12 15 -22 56 -22 122 -15 80 8 -11 6 -12 16 -7 38 l8 30 7 -25 c6 -21 9
-23 17 -9 7 12 20 15 52 12 41 -4 42 -4 25 15 -23 25 -21 30 8 24 42 -7 144
18 138 34 -5 13 9 19 32 14 5 -1 15 6 22 16 9 12 31 18 85 21 88 5 117 23 37
23 -44 1 -50 3 -35 11 10 6 40 12 67 12 27 0 44 4 38 8 -19 11 7 20 66 22 38
1 54 6 51 14 -3 7 4 15 15 18 22 7 25 21 7 28 -10 4 -10 7 -1 14 10 7 89 34
141 49 14 4 17 44 2 44 -5 0 -10 5 -10 11 0 6 8 8 19 4 14 -4 23 1 32 16 10
20 9 21 -10 15 -11 -3 -31 -9 -43 -12 -22 -5 -22 -5 -4 10 11 9 16 16 12 16
-4 0 -4 5 -1 10 5 8 11 7 21 -1 12 -10 13 -9 8 5 -4 10 -1 16 9 16 8 0 17 -5
19 -12 3 -8 16 -6 44 9 44 24 70 28 80 12z m-2006 -670 c0 -4 -6 -9 -12 -12
-19 -6 -7 -15 27 -21 17 -2 32 -5 35 -5 3 -1 -2 -6 -10 -11 -10 -6 -11 -10 -2
-10 6 0 20 8 30 18 10 10 23 17 29 15 6 -2 14 1 18 6 8 13 35 14 35 2 0 -5 -6
-11 -12 -14 -7 -2 -5 -3 4 -2 10 2 20 -1 23 -5 6 -10 65 8 65 20 0 4 11 7 24
6 13 0 22 -4 19 -8 -5 -10 0 -10 21 -2 9 3 13 11 9 18 -3 6 3 2 14 -9 12 -11
20 -24 19 -29 -1 -9 19 -14 66 -19 28 -2 40 -17 14 -17 -9 0 -14 -9 -12 -23 5
-52 34 -61 70 -22 21 22 24 23 44 9 12 -8 26 -13 31 -10 13 8 42 -4 35 -15 -3
-5 -10 -9 -15 -9 -6 0 -7 5 -4 10 3 6 1 10 -4 10 -14 0 -14 -13 0 -27 6 -6 8
-16 5 -22 -10 -16 -36 -13 -42 4 -7 17 -34 21 -34 5 0 -14 -28 -12 -33 3 -2 6
-8 9 -12 5 -4 -4 -3 -14 3 -21 7 -8 9 -17 5 -21 -4 -4 -15 3 -26 16 -17 22
-18 22 -16 3 2 -34 0 -38 -16 -25 -12 10 -15 9 -15 -5 0 -10 -3 -15 -7 -12 -3
4 -12 2 -20 -4 -10 -9 -13 -8 -13 5 0 23 -17 20 -23 -4 -4 -17 -12 -20 -47
-18 -23 1 -44 -2 -48 -8 -4 -5 -14 -10 -22 -11 -8 -1 -25 -4 -37 -7 -13 -3
-23 -2 -23 2 0 4 -11 9 -25 10 -14 1 -25 -3 -25 -8 0 -5 8 -7 18 -3 16 5 16 5
0 -12 -10 -10 -30 -19 -45 -20 -15 -1 -36 -6 -47 -10 -11 -5 -26 -3 -37 3 -24
15 -30 15 -23 -1 2 -7 -2 -21 -10 -32 -12 -16 -16 -17 -30 -6 -9 7 -16 9 -16
4 0 -10 -76 -11 -86 0 -4 4 -12 3 -18 -2 -6 -4 -23 -11 -38 -15 -23 -5 -28 -3
-28 11 -1 15 -2 15 -13 -3 -7 -12 -18 -19 -25 -16 -11 3 -12 0 -3 -17 11 -19
9 -21 -15 -19 -14 2 -29 8 -31 15 -4 9 -10 10 -24 3 -14 -8 -23 -6 -36 7 -23
23 -73 9 -73 -20 0 -10 4 -16 9 -13 5 3 11 -3 14 -15 5 -17 3 -18 -10 -8 -12
10 -16 10 -24 -2 -7 -12 -9 -12 -9 0 0 11 -4 9 -14 -5 -8 -10 -18 -16 -22 -11
-4 4 -2 7 4 7 7 0 12 5 12 10 0 6 -11 10 -25 10 -14 0 -25 5 -25 11 0 8 -4 8
-14 0 -9 -8 -13 -25 -11 -44 3 -26 2 -28 -6 -14 -6 9 -7 22 -4 27 3 6 -1 10
-10 10 -9 0 -15 -6 -13 -14 2 -8 0 -15 -4 -15 -5 -1 -8 1 -8 4 0 3 0 11 0 19
0 7 10 16 23 20 17 5 19 8 8 15 -14 9 -44 -11 -47 -31 -1 -4 -2 -13 -3 -19 -1
-7 -14 -9 -38 -4 -37 6 -70 25 -45 25 7 0 12 4 12 10 0 5 -7 6 -17 3 -11 -4
-14 -3 -9 5 10 17 36 15 42 -3 5 -12 10 -12 27 -3 l21 11 -22 8 c-12 5 -22 13
-22 18 0 6 -6 8 -14 5 -8 -3 -16 3 -19 15 -6 24 3 27 22 9 11 -11 12 -9 6 11
-5 16 -4 21 4 17 6 -4 11 -2 11 3 0 6 -9 11 -20 11 -11 0 -20 6 -20 13 0 9 13
13 43 11 23 -1 36 1 30 3 -7 3 -13 13 -13 24 0 20 -15 26 -23 9 -3 -6 -4 -5
-3 2 2 7 13 13 25 12 16 0 20 4 16 17 -5 15 2 19 40 24 57 9 59 21 3 18 -24 0
-47 1 -51 4 -18 11 18 33 57 34 42 1 109 15 91 19 -5 1 7 7 27 13 38 12 38 12
23 40 l-14 28 37 -6 c20 -3 52 -10 70 -16 18 -6 35 -9 38 -6 3 2 -7 7 -21 11
-14 4 -25 11 -25 16 0 13 16 13 248 6 54 -1 65 6 35 23 -10 5 -15 13 -11 16 4
4 12 4 19 0 20 -13 79 -13 79 0 0 6 7 12 15 12 8 0 15 -4 15 -8z m230 -360 c8
-2 18 -8 22 -14 5 -6 8 -5 8 3 0 7 5 10 10 7 6 -4 18 -1 27 7 14 11 16 11 9
-1 -10 -16 9 -31 39 -30 18 0 17 1 -5 14 -18 10 -20 14 -8 15 9 0 20 -5 24
-11 3 -6 20 -17 38 -25 30 -14 29 -14 -31 -10 -60 3 -62 2 -61 -21 1 -12 6
-23 10 -23 4 0 8 -4 8 -10 0 -5 -18 -10 -39 -10 -22 0 -42 -4 -45 -9 -3 -5
-26 -4 -53 1 -55 12 -80 28 -42 28 13 0 31 5 39 10 11 8 5 10 -22 8 -44 -2
-56 6 -39 26 7 8 10 20 6 25 -3 7 0 8 9 5 10 -4 16 -1 16 9 0 14 39 18 80 6z
m283 -211 c12 -7 37 -29 54 -48 29 -31 31 -35 15 -44 -9 -6 -23 -11 -31 -12
-8 -2 -18 -9 -22 -16 -5 -7 -9 -8 -9 -3 0 6 -6 2 -14 -7 -8 -11 -20 -15 -34
-11 -19 4 -22 13 -24 54 -1 27 -2 57 -2 67 -1 9 -5 20 -11 24 -17 13 54 9 78
-4z m-93 -1927 c0 -5 -10 -11 -22 -14 -12 -4 -20 -9 -16 -12 3 -3 17 0 32 6
14 7 29 9 32 6 11 -11 -16 -36 -32 -30 -16 6 -17 -11 -4 -42 6 -13 9 -15 9 -5
1 10 4 11 9 4 13 -20 40 -23 54 -7 11 14 11 16 -3 11 -16 -6 -39 8 -39 24 0 9
57 -1 83 -14 20 -10 12 -32 -8 -24 -8 3 -17 -4 -20 -15 -4 -10 -13 -19 -21
-19 -15 0 -19 -16 -5 -24 5 -3 9 -17 9 -31 0 -20 -3 -23 -14 -14 -8 6 -11 15
-8 20 3 5 -2 17 -12 26 -11 11 -13 18 -5 21 19 6 12 21 -9 19 -12 -1 -18 -7
-16 -14 4 -9 -1 -10 -22 -2 -35 13 -31 15 -51 -22 -18 -34 -41 -50 -41 -29 0
6 4 8 10 5 6 -3 7 1 4 9 -4 11 0 16 10 16 9 0 16 5 16 11 0 6 -7 9 -15 5 -20
-7 -19 8 0 24 12 10 21 10 40 2 15 -7 26 -8 30 -2 4 6 -1 10 -10 10 -11 0 -15
5 -11 15 3 9 0 15 -10 15 -11 0 -15 6 -11 20 3 13 0 20 -9 20 -10 0 -11 -6 -4
-26 13 -34 13 -34 -10 -34 -12 0 -24 -10 -30 -22 -7 -20 -15 -12 -12 13 1 3
-9 4 -21 2 -12 -2 -29 1 -37 7 -13 9 -12 13 8 27 12 8 22 24 22 35 0 14 5 18
16 14 9 -3 20 -6 26 -6 6 0 8 -7 4 -15 -3 -8 -1 -15 4 -15 6 0 10 6 10 14 0 8
10 17 23 19 16 3 14 5 -10 6 -17 0 -35 6 -38 11 -4 7 7 8 33 4 22 -3 48 -2 58
4 19 11 34 7 34 -7z m2316 -33 c10 -34 7 -138 -7 -170 -13 -32 -26 -36 -31
-11 -3 16 -5 16 -25 -4 -12 -12 -29 -23 -39 -25 -9 -1 -29 -24 -43 -51 -45
-83 -56 -90 -112 -83 -29 4 -49 3 -49 -3 0 -5 -11 -23 -25 -39 -18 -21 -46
-36 -94 -51 -61 -19 -69 -24 -74 -50 -8 -38 -40 -59 -124 -82 -37 -10 -69 -23
-72 -28 -3 -5 -28 -8 -56 -7 -34 1 -55 -4 -66 -15 -25 -25 -104 -38 -194 -32
-81 5 -125 22 -125 48 0 24 -21 28 -36 7 -20 -29 -77 -36 -130 -16 -43 16 -64
42 -24 29 29 -9 25 13 -5 27 -25 11 -41 40 -30 57 3 5 1 12 -5 16 -6 4 -8 11
-5 16 3 5 2 23 -3 41 l-9 33 83 3 c74 3 85 1 104 -18 20 -20 22 -21 34 -4 14
19 162 43 265 44 32 0 61 6 70 14 9 8 76 34 150 59 118 41 136 44 146 31 9
-14 13 -12 23 10 7 17 35 36 88 60 42 20 81 36 87 36 6 0 18 6 26 14 9 7 52
32 96 55 44 23 99 58 123 77 50 39 78 43 88 12z m-1447 -420 c23 -28 28 -66
18 -122 -1 -6 4 -10 11 -8 10 2 10 -2 2 -18 -12 -23 -30 -27 -30 -6 0 8 -8 17
-18 20 -11 4 -30 18 -43 33 l-24 26 23 -12 c22 -12 23 -11 12 9 -7 13 -17 19
-27 16 -11 -5 -14 -2 -9 11 4 9 2 19 -3 22 -5 3 -7 18 -4 34 8 40 59 38 92 -5z"/>
<path d="M4685 5918 c-9 -6 -41 -12 -69 -14 -28 -2 -91 -9 -139 -14 -48 -6
-92 -8 -98 -5 -5 4 -9 2 -9 -4 0 -5 8 -12 18 -14 13 -4 11 -5 -5 -6 -13 0 -52
-14 -86 -31 -35 -16 -70 -30 -77 -30 -7 0 -11 -3 -7 -6 3 -4 -15 -23 -41 -44
-26 -20 -59 -51 -74 -67 -14 -17 -30 -32 -35 -34 -4 -2 -23 -24 -40 -48 -25
-33 -30 -48 -22 -62 5 -11 14 -28 19 -39 13 -26 13 -33 -2 -24 -7 4 -8 3 -4
-5 4 -6 16 -9 26 -6 10 3 21 1 25 -5 3 -5 12 -10 18 -10 7 0 6 4 -3 10 -9 6
-10 10 -3 10 6 0 19 3 29 7 11 4 15 3 11 -4 -4 -6 -1 -13 5 -16 16 -5 -14 -41
-54 -65 -16 -9 -28 -22 -28 -29 0 -7 -5 -22 -12 -33 -16 -25 -8 -32 43 -37 29
-3 39 -1 34 7 -6 9 -2 9 14 0 17 -9 26 -9 37 0 17 15 48 5 41 -14 -3 -8 2 -16
14 -19 14 -4 19 0 19 14 0 17 11 24 33 20 5 -1 6 3 3 8 -8 12 30 25 44 16 6
-4 9 -1 8 5 -2 7 5 14 15 15 13 2 17 -1 13 -11 -7 -19 8 -18 24 1 15 18 55 21
44 3 -5 -7 -3 -8 6 -3 10 6 12 4 7 -8 -3 -9 1 -18 10 -21 11 -4 13 -2 9 9 -3
8 -9 22 -12 30 -3 8 -1 15 5 15 6 0 11 -9 11 -20 0 -26 8 -25 34 3 30 32 65
44 115 40 25 -1 48 2 51 8 4 6 13 12 21 13 37 7 78 21 119 39 25 11 48 20 51
19 4 -1 15 8 25 20 19 20 19 21 -4 14 -21 -7 -22 -5 -15 21 12 43 6 122 -12
149 -15 23 -15 24 9 24 14 0 48 -9 76 -20 28 -11 66 -20 85 -20 36 0 56 -16
32 -26 -20 -7 -112 -94 -100 -94 5 0 15 6 22 13 11 10 13 10 7 0 -9 -16 -2
-16 22 -3 35 20 102 38 108 28 3 -5 14 0 24 12 17 20 87 30 75 10 -3 -5 -12
-7 -20 -4 -8 3 -20 2 -27 -2 -9 -6 -4 -10 17 -14 30 -6 59 6 50 20 -5 9 10 7
35 -3 8 -4 24 -5 35 -3 11 3 37 5 58 5 20 1 37 5 37 10 0 5 -17 14 -37 19 -36
10 -35 10 14 5 59 -6 123 3 123 18 0 6 -8 8 -19 4 -14 -4 -20 1 -25 17 -4 17
-8 20 -14 10 -6 -9 -18 -11 -37 -6 -22 5 -26 4 -20 -6 5 -8 4 -11 -3 -6 -18
11 -2 36 32 50 l31 14 -33 -1 c-19 0 -37 4 -40 10 -4 6 -18 14 -31 18 -14 4
-49 32 -79 61 -29 30 -60 54 -68 54 -8 0 -14 4 -14 9 0 5 -11 8 -25 6 -14 -1
-25 1 -25 4 0 3 -10 7 -22 8 -13 1 -45 6 -73 13 -27 6 -82 11 -121 10 -40 0
-83 4 -97 9 -16 6 -27 6 -29 0 -2 -5 -15 -6 -34 0 -19 5 -37 5 -49 -1z m275
-44 c30 -3 62 -12 71 -20 12 -11 18 -12 21 -3 5 14 80 -21 116 -55 13 -11 26
-20 28 -18 2 1 12 -2 22 -7 14 -8 14 -11 2 -12 -8 -1 -18 -1 -22 -1 -3 1 -12
-6 -20 -15 -11 -14 -11 -16 2 -8 8 5 24 11 35 12 18 3 17 1 -5 -16 -25 -20
-112 -34 -118 -19 -2 4 -14 8 -27 8 -51 0 -33 42 32 79 12 7 15 13 8 20 -7 7
-25 -2 -56 -29 -41 -35 -99 -62 -99 -46 0 3 18 24 40 46 37 37 50 60 33 60 -5
0 -19 -16 -33 -35 -29 -39 -66 -58 -106 -53 -24 2 -30 8 -34 37 -5 35 -31 58
-28 24 3 -37 -3 -51 -23 -56 -15 -4 -23 0 -26 14 -5 18 -6 18 -18 3 -12 -18
-51 -13 -41 5 8 12 -3 41 -15 41 -5 0 -9 -14 -9 -30 0 -35 -8 -40 -76 -44 -55
-4 -121 19 -127 44 -3 10 -8 6 -15 -12 -6 -16 -19 -28 -27 -28 -9 0 -13 5 -10
10 8 13 -18 13 -31 0 -5 -5 -15 -6 -23 0 -12 7 -12 11 -2 24 11 13 11 16 -2
16 -8 0 -18 -6 -20 -12 -3 -8 -6 -6 -6 4 -1 11 9 20 27 24 15 3 36 9 47 14 23
10 162 38 220 43 45 5 232 -1 315 -9z"/>
<path d="M4832 4102 c-9 -6 -4 -16 18 -35 20 -18 30 -22 30 -13 0 8 9 13 24
12 25 -1 26 -16 1 -16 -7 0 -16 -7 -19 -16 -4 -10 -1 -14 6 -12 7 3 17 -5 23
-16 6 -11 27 -29 47 -40 21 -10 35 -22 33 -26 -3 -4 2 -14 11 -21 8 -7 14 -8
12 -3 -2 5 2 10 7 12 6 1 11 -2 11 -8 1 -5 2 -15 3 -21 0 -6 8 -9 16 -5 8 3
14 0 12 -7 -1 -6 13 -14 32 -17 19 -3 37 -12 40 -20 3 -8 17 -16 31 -17 48 -4
60 -7 60 -15 0 -4 -7 -8 -16 -8 -8 0 -12 -5 -9 -11 4 -6 -1 -17 -11 -24 -18
-14 -18 -14 3 -15 12 0 24 -4 28 -9 3 -5 -8 -8 -24 -6 -16 2 -34 -2 -39 -8
-15 -17 89 -18 106 -1 7 7 12 16 12 19 -1 3 1 11 3 18 4 9 7 9 18 0 7 -7 22
-13 32 -13 11 0 21 -9 24 -21 4 -15 8 -17 14 -8 6 10 11 10 23 0 20 -17 20
-31 0 -31 -8 0 -12 -5 -9 -10 4 -6 11 -8 16 -5 5 4 12 -1 15 -10 4 -10 13 -13
25 -10 11 4 19 2 19 -4 0 -6 9 -11 21 -11 11 0 17 -4 14 -10 -3 -5 0 -10 7
-10 20 0 38 -46 24 -60 -6 -6 -7 -11 -1 -10 24 5 55 -14 55 -32 0 -18 1 -18
16 -3 11 10 25 14 40 11 13 -4 24 -2 24 3 0 15 -32 22 -46 10 -11 -9 -14 -7
-14 7 0 14 7 19 30 19 17 0 30 -3 30 -7 0 -5 11 -8 25 -8 l25 0 -22 25 c-12
14 -28 25 -35 25 -7 0 -13 5 -13 11 0 6 9 8 23 4 20 -6 20 -4 -6 19 -15 14
-23 26 -18 26 15 0 9 22 -9 37 -11 9 -12 12 -2 13 21 0 3 20 -19 20 -10 0 -19
5 -19 11 0 5 -4 8 -9 5 -5 -3 -12 1 -15 10 -3 8 -10 12 -16 9 -5 -3 -10 -1
-10 6 0 7 -3 9 -7 6 -3 -4 -12 2 -20 13 -8 11 -19 20 -24 20 -5 0 -19 9 -31
20 -12 11 -37 23 -56 26 l-35 7 24 14 c23 14 23 14 2 10 -12 -3 -42 -1 -65 5
-24 5 -52 11 -63 13 -52 8 -85 18 -85 27 0 5 6 8 13 7 25 -3 38 1 32 11 -3 5
-13 6 -22 3 -10 -4 -14 -2 -10 4 10 15 -18 24 -32 10 -8 -8 -11 -8 -11 0 0 6
-8 9 -17 7 -22 -5 -51 12 -40 23 5 4 12 1 17 -7 8 -13 12 -13 27 3 9 9 12 17
6 17 -6 0 -14 -6 -16 -12 -3 -8 -6 -6 -6 5 -1 20 -21 22 -40 5 -11 -11 -13 -9
-9 7 4 15 -2 24 -18 32 -20 9 -24 8 -24 -4 0 -8 -6 -13 -12 -10 -7 2 -13 14
-12 26 0 11 -3 21 -8 21 -4 0 -8 -6 -8 -14 0 -9 -7 -12 -20 -9 -11 3 -20 9
-20 13 0 4 -12 8 -26 8 -15 0 -30 5 -34 12 -5 8 -9 7 -13 -4 -4 -9 -13 -16
-22 -16 -18 0 -20 16 -2 23 6 3 8 6 2 6 -5 0 -16 -3 -23 -7z"/>
<path d="M2490 3723 c-8 -3 -19 -11 -23 -17 -6 -8 -10 -7 -14 2 -2 6 -14 12
-26 12 -21 -1 -21 -1 -4 -14 10 -8 14 -17 8 -20 -5 -3 -11 -2 -13 3 -1 5 -34
11 -71 14 -65 5 -69 4 -64 -14 3 -12 0 -19 -8 -19 -23 0 -5 -38 21 -44 15 -4
24 -13 22 -23 -2 -12 6 -16 35 -17 27 -1 36 3 32 12 -2 7 1 12 8 10 16 -3 127
53 127 64 0 4 -7 8 -15 8 -8 0 -15 4 -15 9 0 5 9 7 19 4 15 -4 20 0 18 16 -1
21 -9 24 -37 14z"/>
</g>
</svg>
